# xmcd CD database file
#
# Track frame offsets:
#	150
#	33817
#	66189
#	100071
#	120571
#	153603
#	175125
#	192979
#	219669
#	238764
#
# Disc length: 3660 seconds
#
# Revision: 0
# Processed by: cddbd v1.5PL3 Copyright (c) Steve Scherf et al.
# Submitted via: CDex 1.51
#
DISCID=860e4a0a
DTITLE=Three Angels - Angel Eyes
DYEAR=2004
DGENRE=Jazz
TTITLE0=Summertime
TTITLE1=The Masquerade is Over
TTITLE2=Angel Eyes
TTITLE3=Estrella
TTITLE4=Loss of Love
TTITLE5=The Surrey With The Fringe On Top
TTITLE6=Nocturne
TTITLE7=Leaving
TTITLE8=TuBoo
TTITLE9=Invitation
EXTD=YEAR: 2004
EXTT0=
EXTT1=
EXTT2=
EXTT3=
EXTT4=
EXTT5=
EXTT6=
EXTT7=
EXTT8=
EXTT9=
PLAYORDER=
